<?xml version="1.0" encoding="utf-8"?>
<!-- Generator: Adobe Illustrator 24.0.1, SVG Export Plug-In . SVG Version: 6.00 Build 0)  -->
<svg version="1.1" id="Layer_1" xmlns="http://www.w3.org/2000/svg" xmlns:xlink="http://www.w3.org/1999/xlink" x="0px" y="0px"
	 viewBox="0 0 130.6 34.6" style="enable-background:new 0 0 130.6 34.6;" xml:space="preserve">
<style type="text/css">
	.st0{enable-background:new    ;}
</style>
<g>
	<polygon points="41.5,6.1 38.2,0.6 44.7,0.6 	"/>
</g>
<polygon points="84.6,34 87.8,28.5 91,34 "/>
<g>
	<g class="st0">
		<path d="M1.7,8.5c0.4-0.3,0.9-0.5,1.7-0.5c1.4,0,2.9,1,2.9,2.8c0,1-0.4,3-3.1,3c-1.1,0-2.6-0.5-2.8-2.4h1.1c0.1,1,0.9,1.5,1.8,1.5
			c1.1,0,1.8-0.9,1.8-2c0-1.2-0.9-1.9-1.9-1.9C2.5,8.9,2,9.2,1.6,9.7l-0.9,0L1.3,5h4.5v1.1H2.1L1.7,8.5z"/>
	</g>
	<g class="st0">
		<path d="M7.6,7l1.8-1.8c0.1-0.1,0.3-0.3,0.5-0.3c0.3,0,0.4,0.2,0.4,0.5c0,0.2-0.2,0.4-0.4,0.5L8,7H7.6z"/>
	</g>
</g>
<g class="st0">
	<path d="M11.6,13.6c-0.4,0-0.6-0.3-0.6-0.6c0-0.4,0.3-0.6,0.6-0.6c0.4,0,0.6,0.3,0.6,0.6C12.2,13.3,11.9,13.6,11.6,13.6z"/>
	<path d="M17,13.6c-0.4,0-0.6-0.3-0.6-0.6c0-0.4,0.3-0.6,0.6-0.6c0.4,0,0.6,0.3,0.6,0.6C17.6,13.3,17.3,13.6,17,13.6z"/>
	<path d="M22.3,13.6c-0.4,0-0.6-0.3-0.6-0.6c0-0.4,0.3-0.6,0.6-0.6c0.4,0,0.6,0.3,0.6,0.6C23,13.3,22.7,13.6,22.3,13.6z"/>
</g>
<g>
	<g class="st0">
		<path d="M35,8.8h3.9v4.7h-0.8l-0.3-1.1c-0.6,0.8-1.7,1.4-2.9,1.4c-1.5,0-2.3-0.6-2.7-1c-1.4-1.3-1.4-2.8-1.4-3.7
			c0-2.2,1.3-4.6,4.2-4.6c1.7,0,3.5,0.9,3.8,2.9h-1.2c-0.4-1.5-1.7-1.9-2.7-1.9c-1.6,0-2.9,1.3-2.9,3.6c0,1.8,0.6,3.7,3,3.7
			c0.4,0,1.2,0,1.8-0.6c0.8-0.6,1-1.4,1-2.4H35V8.8z"/>
	</g>
	<g class="st0">
		<path d="M44.9,11L44,13.5h-1.2l3.3-8.9h1.4l3.2,8.9h-1.3L48.5,11H44.9z M48.1,9.9L46.7,6h0l-1.4,3.9H48.1z"/>
	</g>
	<g class="st0">
		<path d="M56.6,11l-0.9,2.6h-1.2l3.3-8.9h1.4l3.2,8.9h-1.3L60.2,11H56.6z M59.8,9.9L58.4,6h0L57,9.9H59.8z"/>
	</g>
	<g class="st0">
		<path d="M66.5,4.7h7.2v1.1h-3v7.8h-1.2V5.7h-3V4.7z"/>
	</g>
	<g class="st0">
		<path d="M78.2,4.7h7.2v1.1h-3v7.8h-1.2V5.7h-3V4.7z"/>
	</g>
	<g class="st0">
		<path d="M96.2,7.3c-0.3-1.6-1.6-1.8-2.5-1.8c-1.6,0-2.9,1.2-2.9,3.5c0,2.1,0.7,3.7,2.9,3.7c0.8,0,2.1-0.4,2.5-2.4h1.2
			c-0.5,3.3-3.2,3.5-3.9,3.5c-2,0-4-1.3-4-4.7c0-2.7,1.6-4.6,4.1-4.6c2.3,0,3.5,1.4,3.6,2.9H96.2z"/>
	</g>
</g>
<g class="st0">
	<path d="M102.7,13.6c-0.4,0-0.6-0.3-0.6-0.6c0-0.4,0.3-0.6,0.6-0.6c0.4,0,0.6,0.3,0.6,0.6C103.3,13.3,103,13.6,102.7,13.6z"/>
	<path d="M108.1,13.6c-0.4,0-0.6-0.3-0.6-0.6c0-0.4,0.3-0.6,0.6-0.6c0.4,0,0.6,0.3,0.6,0.6C108.7,13.3,108.4,13.6,108.1,13.6z"/>
	<path d="M113.4,13.6c-0.4,0-0.6-0.3-0.6-0.6c0-0.4,0.3-0.6,0.6-0.6s0.6,0.3,0.6,0.6C114.1,13.3,113.8,13.6,113.4,13.6z"/>
</g>
<g>
	<g class="st0">
		<path d="M120.4,8.6c0.2,0,0.4,0,0.6,0c0.8,0,1.7-0.3,1.7-1.4c0-0.5-0.3-1.4-1.6-1.4c-1.5,0-1.6,1.3-1.7,1.9h-1.1
			c0-1.3,0.5-2.8,2.8-2.8c1.7,0,2.7,1,2.7,2.3c0,1.1-0.6,1.6-1.1,1.8v0c0.8,0.3,1.4,0.9,1.4,2c0,1.4-0.9,2.8-3.1,2.8
			c-0.6,0-1.2-0.2-1.6-0.4c-1-0.5-1.2-1.5-1.3-2.5h1.1c0,0.8,0.2,1.9,1.9,1.9c1.1,0,1.9-0.7,1.9-1.7c0-1.5-1.3-1.6-2-1.6
			c-0.2,0-0.3,0-0.5,0V8.6z"/>
	</g>
	<g class="st0">
		<path d="M125.3,7l1.8-1.8c0.1-0.1,0.3-0.3,0.5-0.3c0.3,0,0.4,0.2,0.4,0.5c0,0.2-0.2,0.4-0.4,0.5L125.7,7H125.3z"/>
	</g>
	<g class="st0">
		<path d="M2.7,24.2c0.2,0,0.4,0,0.6,0c0.8,0,1.7-0.3,1.7-1.4c0-0.5-0.3-1.4-1.6-1.4c-1.5,0-1.6,1.3-1.7,1.9H0.5
			c0-1.3,0.5-2.8,2.8-2.8c1.7,0,2.7,1,2.7,2.3c0,1.1-0.6,1.6-1.1,1.8v0c0.8,0.3,1.4,0.9,1.4,2c0,1.4-0.9,2.8-3.1,2.8
			c-0.6,0-1.2-0.2-1.6-0.4c-1-0.5-1.2-1.5-1.3-2.5h1.1c0,0.8,0.2,1.9,1.9,1.9c1.1,0,1.9-0.7,1.9-1.7c0-1.5-1.3-1.6-2-1.6
			c-0.2,0-0.3,0-0.5,0V24.2z"/>
	</g>
</g>
<g class="st0">
	<path d="M7.6,22.6l1.8-1.8c0.1-0.1,0.3-0.3,0.5-0.3c0.3,0,0.4,0.2,0.4,0.5c0,0.2-0.2,0.4-0.4,0.5L8,22.6H7.6z"/>
</g>
<g class="st0">
	<path d="M11.6,29.2c-0.4,0-0.6-0.3-0.6-0.6c0-0.4,0.3-0.6,0.6-0.6c0.4,0,0.6,0.3,0.6,0.6C12.2,28.9,11.9,29.2,11.6,29.2z"/>
	<path d="M17,29.2c-0.4,0-0.6-0.3-0.6-0.6c0-0.4,0.3-0.6,0.6-0.6c0.4,0,0.6,0.3,0.6,0.6C17.6,28.9,17.3,29.2,17,29.2z"/>
	<path d="M22.3,29.2c-0.4,0-0.6-0.3-0.6-0.6c0-0.4,0.3-0.6,0.6-0.6c0.4,0,0.6,0.3,0.6,0.6C23,28.9,22.7,29.2,22.3,29.2z"/>
</g>
<g class="st0">
	<path d="M37.7,22.9c-0.3-1.6-1.6-1.8-2.5-1.8c-1.6,0-2.9,1.2-2.9,3.5c0,2.1,0.7,3.7,2.9,3.7c0.8,0,2.1-0.4,2.5-2.4H39
		c-0.5,3.3-3.2,3.5-3.9,3.5c-2,0-4-1.3-4-4.7c0-2.7,1.6-4.6,4.1-4.6c2.3,0,3.5,1.4,3.6,2.9H37.7z"/>
</g>
<g class="st0">
	<path d="M43.1,20.3h7.2v1.1h-3v7.8h-1.2v-7.8h-3V20.3z"/>
</g>
<g class="st0">
	<path d="M54.8,20.3H62v1.1h-3v7.8h-1.2v-7.8h-3V20.3z"/>
</g>
<g class="st0">
	<path d="M68.3,26.6l-0.9,2.6h-1.2l3.3-8.9h1.4l3.2,8.9h-1.3l-0.9-2.6H68.3z M71.4,25.5l-1.3-3.9h0l-1.4,3.9H71.4z"/>
</g>
<g class="st0">
	<path d="M80,26.6l-0.9,2.6h-1.2l3.3-8.9h1.4l3.2,8.9h-1.3l-0.9-2.6H80z M83.1,25.5l-1.3-3.9h0l-1.4,3.9H83.1z"/>
</g>
<g class="st0">
	<path d="M93.5,24.4h3.9v4.7h-0.8L96.3,28c-0.6,0.8-1.7,1.4-2.9,1.4c-1.5,0-2.3-0.6-2.7-1c-1.4-1.3-1.4-2.8-1.4-3.7
		c0-2.2,1.3-4.6,4.2-4.6c1.7,0,3.5,0.9,3.8,2.9h-1.2c-0.4-1.5-1.7-1.9-2.7-1.9c-1.6,0-2.9,1.3-2.9,3.6c0,1.8,0.6,3.7,3,3.7
		c0.4,0,1.2,0,1.8-0.6c0.8-0.6,1-1.4,1-2.4h-2.8V24.4z"/>
</g>
<g class="st0">
	<path d="M102.7,29.2c-0.4,0-0.6-0.3-0.6-0.6c0-0.4,0.3-0.6,0.6-0.6c0.4,0,0.6,0.3,0.6,0.6C103.3,28.9,103,29.2,102.7,29.2z"/>
	<path d="M108.1,29.2c-0.4,0-0.6-0.3-0.6-0.6c0-0.4,0.3-0.6,0.6-0.6c0.4,0,0.6,0.3,0.6,0.6C108.7,28.9,108.4,29.2,108.1,29.2z"/>
	<path d="M113.4,29.2c-0.4,0-0.6-0.3-0.6-0.6c0-0.4,0.3-0.6,0.6-0.6s0.6,0.3,0.6,0.6C114.1,28.9,113.8,29.2,113.4,29.2z"/>
</g>
<g class="st0">
	<path d="M120.2,24.1c0.4-0.3,0.9-0.5,1.7-0.5c1.4,0,2.9,1,2.9,2.8c0,1-0.4,3-3.1,3c-1.1,0-2.6-0.5-2.8-2.4h1.1
		c0.1,1,0.9,1.5,1.8,1.5c1.1,0,1.8-0.9,1.8-2c0-1.2-0.9-1.9-1.9-1.9c-0.6,0-1.2,0.3-1.6,0.8l-0.9,0l0.7-4.7h4.5v1.1h-3.7L120.2,24.1
		z"/>
</g>
<g class="st0">
	<path d="M126,22.6l1.8-1.8c0.1-0.1,0.3-0.3,0.5-0.3c0.3,0,0.4,0.2,0.4,0.5c0,0.2-0.2,0.4-0.4,0.5l-1.9,1.2H126z"/>
</g>
</svg>
