<?xml version="1.0" encoding="utf-8"?>
<!-- Generator: Adobe Illustrator 24.0.1, SVG Export Plug-In . SVG Version: 6.00 Build 0)  -->
<svg version="1.1" id="Layer_1" xmlns="http://www.w3.org/2000/svg" xmlns:xlink="http://www.w3.org/1999/xlink" x="0px" y="0px"
	 viewBox="0 0 107.6 34.6" style="enable-background:new 0 0 107.6 34.6;" xml:space="preserve">
<style type="text/css">
	.st0{enable-background:new    ;}
</style>
<g class="st0">
	<path d="M1.9,8.8c0.4-0.3,0.9-0.5,1.7-0.5c1.4,0,2.9,1,2.9,2.8c0,1-0.4,3-3.1,3c-1.1,0-2.6-0.5-2.8-2.4h1.1c0.1,1,0.9,1.5,1.8,1.5
		c1.1,0,1.8-0.9,1.8-2c0-1.2-0.9-1.9-1.9-1.9c-0.6,0-1.2,0.3-1.6,0.8l-0.9,0l0.7-4.7h4.5v1.1H2.2L1.9,8.8z"/>
</g>
<g class="st0">
	<path d="M7.7,7.3l1.8-1.8C9.6,5.4,9.9,5.2,10,5.2c0.3,0,0.4,0.2,0.4,0.5c0,0.2-0.2,0.4-0.4,0.5L8.2,7.3H7.7z"/>
</g>
<g class="st0">
	<path d="M11.5,14c-0.4,0-0.6-0.3-0.6-0.6c0-0.4,0.3-0.6,0.6-0.6c0.4,0,0.6,0.3,0.6,0.6C12.2,13.7,11.9,14,11.5,14z"/>
	<path d="M16.9,14c-0.4,0-0.6-0.3-0.6-0.6c0-0.4,0.3-0.6,0.6-0.6c0.4,0,0.6,0.3,0.6,0.6C17.6,13.7,17.3,14,16.9,14z"/>
</g>
<g class="st0">
	<path d="M24.6,14c-0.4,0-0.6-0.3-0.6-0.6c0-0.4,0.3-0.6,0.6-0.6c0.4,0,0.6,0.3,0.6,0.6C25.3,13.7,25,14,24.6,14z"/>
</g>
<g class="st0">
	<path d="M33.3,11.3l-0.9,2.6h-1.2L34.5,5h1.4l3.2,8.9h-1.3l-0.9-2.6H33.3z M36.4,10.2l-1.3-3.9h0l-1.4,3.9H36.4z"/>
	<path d="M45.6,9.1h3.9v4.7h-0.8l-0.3-1.1c-0.6,0.8-1.7,1.4-2.9,1.4c-1.5,0-2.3-0.6-2.7-1c-1.4-1.3-1.4-2.8-1.4-3.7
		c0-2.2,1.3-4.6,4.2-4.6c1.7,0,3.5,0.9,3.8,2.9h-1.2c-0.4-1.5-1.7-1.9-2.7-1.9c-1.6,0-2.9,1.3-2.9,3.6c0,1.8,0.6,3.7,3,3.7
		c0.4,0,1.2,0,1.8-0.6c0.8-0.6,1-1.4,1-2.4h-2.8V9.1z"/>
</g>
<g class="st0">
	<path d="M61.2,7.7c-0.3-1.6-1.6-1.8-2.5-1.8c-1.6,0-2.9,1.2-2.9,3.5c0,2.1,0.7,3.7,2.9,3.7c0.8,0,2.1-0.4,2.5-2.4h1.2
		c-0.5,3.3-3.2,3.5-3.9,3.5c-2,0-4-1.3-4-4.7c0-2.7,1.6-4.6,4.1-4.6c2.3,0,3.5,1.4,3.6,2.9H61.2z"/>
	<path d="M66.1,5h7.2v1.1h-3v7.8h-1.2V6.1h-3V5z"/>
</g>
<g class="st0">
	<path d="M79.4,14c-0.4,0-0.6-0.3-0.6-0.6c0-0.4,0.3-0.6,0.6-0.6c0.4,0,0.6,0.3,0.6,0.6C80,13.7,79.8,14,79.4,14z"/>
	<path d="M84.8,14c-0.4,0-0.6-0.3-0.6-0.6c0-0.4,0.3-0.6,0.6-0.6c0.4,0,0.6,0.3,0.6,0.6C85.4,13.7,85.2,14,84.8,14z"/>
	<path d="M90.2,14c-0.4,0-0.6-0.3-0.6-0.6c0-0.4,0.3-0.6,0.6-0.6s0.6,0.3,0.6,0.6C90.8,13.7,90.6,14,90.2,14z"/>
</g>
<g class="st0">
	<path d="M100,8.9c0.2,0,0.4,0,0.6,0c0.8,0,1.7-0.3,1.7-1.4c0-0.5-0.3-1.4-1.6-1.4c-1.5,0-1.6,1.3-1.7,1.9h-1.1
		c0-1.3,0.5-2.8,2.8-2.8c1.7,0,2.7,1,2.7,2.3c0,1.1-0.6,1.6-1.1,1.8v0c0.8,0.3,1.4,0.9,1.4,2c0,1.4-0.9,2.8-3.1,2.8
		c-0.6,0-1.2-0.2-1.6-0.4c-1-0.5-1.2-1.5-1.3-2.5h1.1c0,0.8,0.2,1.9,1.9,1.9c1.1,0,1.9-0.7,1.9-1.7c0-1.5-1.3-1.6-2-1.6
		c-0.2,0-0.3,0-0.5,0V8.9z"/>
</g>
<g class="st0">
	<path d="M104.7,7.3l1.8-1.8c0.1-0.1,0.3-0.3,0.5-0.3c0.3,0,0.4,0.2,0.4,0.5c0,0.2-0.2,0.4-0.4,0.5l-1.9,1.2H104.7z"/>
</g>
<g class="st0">
	<path d="M2.8,24.6c0.2,0,0.4,0,0.6,0c0.8,0,1.7-0.3,1.7-1.4c0-0.5-0.3-1.4-1.6-1.4c-1.5,0-1.6,1.3-1.7,1.9H0.7
		c0-1.3,0.5-2.8,2.8-2.8c1.7,0,2.7,1,2.7,2.3c0,1.1-0.6,1.6-1.1,1.8v0c0.8,0.3,1.4,0.9,1.4,2c0,1.4-0.9,2.8-3.1,2.8
		c-0.6,0-1.2-0.2-1.6-0.4c-1-0.5-1.2-1.5-1.3-2.5h1.1c0,0.8,0.2,1.9,1.9,1.9c1.1,0,1.9-0.7,1.9-1.7c0-1.5-1.3-1.6-2-1.6
		c-0.2,0-0.3,0-0.5,0V24.6z"/>
</g>
<g class="st0">
	<path d="M7.7,22.9l1.8-1.8c0.1-0.1,0.3-0.3,0.5-0.3c0.3,0,0.4,0.2,0.4,0.5c0,0.2-0.2,0.4-0.4,0.5l-1.9,1.2H7.7z"/>
</g>
<g class="st0">
	<path d="M11.5,29.6c-0.4,0-0.6-0.3-0.6-0.6c0-0.4,0.3-0.6,0.6-0.6c0.4,0,0.6,0.3,0.6,0.6C12.2,29.3,11.9,29.6,11.5,29.6z"/>
	<path d="M16.9,29.6c-0.4,0-0.6-0.3-0.6-0.6c0-0.4,0.3-0.6,0.6-0.6c0.4,0,0.6,0.3,0.6,0.6C17.6,29.3,17.3,29.6,16.9,29.6z"/>
</g>
<g class="st0">
	<path d="M24.6,29.6c-0.4,0-0.6-0.3-0.6-0.6c0-0.4,0.3-0.6,0.6-0.6c0.4,0,0.6,0.3,0.6,0.6C25.3,29.3,25,29.6,24.6,29.6z"/>
</g>
<g class="st0">
	<path d="M31.4,20.6h7.2v1.1h-3v7.8h-1.2v-7.8h-3V20.6z"/>
	<path d="M49,23.3c-0.3-1.6-1.6-1.8-2.5-1.8c-1.6,0-2.9,1.2-2.9,3.5c0,2.1,0.7,3.7,2.9,3.7c0.8,0,2.1-0.4,2.5-2.4h1.2
		c-0.5,3.3-3.2,3.5-3.9,3.5c-2,0-4-1.3-4-4.7c0-2.7,1.6-4.6,4.1-4.6c2.3,0,3.5,1.4,3.6,2.9H49z"/>
</g>
<g class="st0">
	<path d="M58.5,24.8h3.9v4.7h-0.8l-0.3-1.1c-0.6,0.8-1.7,1.4-2.9,1.4c-1.5,0-2.3-0.6-2.7-1c-1.4-1.3-1.4-2.8-1.4-3.7
		c0-2.2,1.3-4.6,4.2-4.6c1.7,0,3.5,0.9,3.8,2.9h-1.2c-0.4-1.5-1.7-1.9-2.7-1.9c-1.6,0-2.9,1.3-2.9,3.6c0,1.8,0.6,3.7,3,3.7
		c0.4,0,1.2,0,1.8-0.6c0.8-0.6,1-1.4,1-2.4h-2.8V24.8z"/>
	<path d="M67.4,26.9l-0.9,2.6h-1.2l3.3-8.9h1.4l3.2,8.9h-1.3L71,26.9H67.4z M70.5,25.8l-1.3-3.9h0l-1.4,3.9H70.5z"/>
</g>
<g class="st0">
	<path d="M79.4,29.6c-0.4,0-0.6-0.3-0.6-0.6c0-0.4,0.3-0.6,0.6-0.6c0.4,0,0.6,0.3,0.6,0.6C80,29.3,79.8,29.6,79.4,29.6z"/>
	<path d="M84.8,29.6c-0.4,0-0.6-0.3-0.6-0.6c0-0.4,0.3-0.6,0.6-0.6c0.4,0,0.6,0.3,0.6,0.6C85.4,29.3,85.2,29.6,84.8,29.6z"/>
	<path d="M90.2,29.6c-0.4,0-0.6-0.3-0.6-0.6c0-0.4,0.3-0.6,0.6-0.6s0.6,0.3,0.6,0.6C90.8,29.3,90.6,29.6,90.2,29.6z"/>
</g>
<g class="st0">
	<path d="M99.1,24.4c0.4-0.3,0.9-0.5,1.7-0.5c1.4,0,2.9,1,2.9,2.8c0,1-0.4,3-3.1,3c-1.1,0-2.6-0.5-2.8-2.4h1.1
		c0.1,1,0.9,1.5,1.8,1.5c1.1,0,1.8-0.9,1.8-2c0-1.2-0.9-1.9-1.9-1.9c-0.6,0-1.2,0.3-1.6,0.8l-0.9,0l0.7-4.7h4.5v1.1h-3.7L99.1,24.4z
		"/>
</g>
<g class="st0">
	<path d="M104.7,22.9l1.8-1.8c0.1-0.1,0.3-0.3,0.5-0.3c0.3,0,0.4,0.2,0.4,0.5c0,0.2-0.2,0.4-0.4,0.5l-1.9,1.2H104.7z"/>
</g>
<polygon points="56,0.6 49.6,0.6 52.8,6.1 "/>
<polygon points="56,34.2 52.8,28.7 49.6,34.2 "/>
</svg>
