<?xml version="1.0" encoding="utf-8"?>
<!-- Generator: Adobe Illustrator 24.0.1, SVG Export Plug-In . SVG Version: 6.00 Build 0)  -->
<svg version="1.1" id="Layer_1" xmlns="http://www.w3.org/2000/svg" xmlns:xlink="http://www.w3.org/1999/xlink" x="0px" y="0px"
	 viewBox="0 0 124.3 34.6" style="enable-background:new 0 0 124.3 34.6;" xml:space="preserve">
<style type="text/css">
	.st0{enable-background:new    ;}
</style>
<g>
	<polygon points="37.6,6 34.4,0.5 40.8,0.5 	"/>
	<polygon points="79.5,34.4 82.7,28.9 86,34.4 	"/>
	<g class="st0">
		<path d="M1.7,9.2C2,8.9,2.6,8.6,3.3,8.6c1.4,0,2.9,1,2.9,2.8c0,1-0.4,3.1-3.2,3.1c-1.1,0-2.6-0.5-2.8-2.4h1.1
			c0.1,1,0.9,1.5,1.8,1.5c1.1,0,1.8-0.9,1.8-2c0-1.2-0.9-1.9-1.9-1.9c-0.6,0-1.2,0.3-1.6,0.8l-0.9,0l0.7-4.7h4.5v1.1H2L1.7,9.2z"/>
	</g>
</g>
<g class="st0">
	<path d="M7.5,7.7l1.8-1.8c0.1-0.1,0.3-0.3,0.5-0.3c0.3,0,0.4,0.2,0.4,0.5c0,0.2-0.2,0.4-0.4,0.5L8,7.7H7.5z"/>
</g>
<g class="st0">
	<path d="M11.5,14.3c-0.4,0-0.6-0.3-0.6-0.6c0-0.4,0.3-0.6,0.6-0.6c0.4,0,0.6,0.3,0.6,0.6C12.1,14.1,11.9,14.3,11.5,14.3z"/>
	<path d="M16.9,14.3c-0.4,0-0.6-0.3-0.6-0.6c0-0.4,0.3-0.6,0.6-0.6c0.4,0,0.6,0.3,0.6,0.6C17.5,14.1,17.3,14.3,16.9,14.3z"/>
	<path d="M22.3,14.3c-0.4,0-0.6-0.3-0.6-0.6c0-0.4,0.3-0.6,0.6-0.6c0.4,0,0.6,0.3,0.6,0.6C22.9,14.1,22.7,14.3,22.3,14.3z"/>
</g>
<g>
	<g class="st0">
		<path d="M27.6,5.4h7.2v1.1h-3v7.8h-1.2V6.4h-3V5.4z"/>
	</g>
	<g class="st0">
		<path d="M45.5,8c-0.3-1.6-1.6-1.8-2.5-1.8c-1.6,0-2.9,1.2-2.9,3.5c0,2.1,0.7,3.7,2.9,3.7c0.8,0,2.1-0.4,2.5-2.4h1.2
			c-0.5,3.4-3.2,3.5-3.9,3.5c-2,0-4-1.3-4-4.7c0-2.7,1.6-4.6,4.1-4.6c2.3,0,3.5,1.4,3.7,2.9H45.5z"/>
	</g>
	<g class="st0">
		<path d="M53.1,11.7l-0.9,2.6h-1.2l3.3-8.9h1.4l3.2,8.9h-1.3l-0.9-2.6H53.1z M56.2,10.6l-1.3-3.9h0l-1.4,3.9H56.2z"/>
	</g>
	<g class="st0">
		<path d="M61.4,5.4h7.2v1.1h-3v7.8h-1.2V6.4h-3V5.4z"/>
	</g>
	<g class="st0">
		<path d="M76.7,9.5h3.9v4.8h-0.8l-0.3-1.2c-0.6,0.8-1.7,1.4-2.9,1.4c-1.5,0-2.3-0.6-2.7-1c-1.4-1.3-1.4-2.8-1.4-3.7
			c0-2.2,1.3-4.6,4.2-4.6c1.7,0,3.5,0.9,3.8,2.9h-1.2c-0.4-1.5-1.7-1.9-2.7-1.9c-1.6,0-2.9,1.3-2.9,3.6c0,1.8,0.6,3.7,3,3.7
			c0.4,0,1.2,0,1.8-0.6c0.8-0.6,1-1.4,1-2.4h-2.8V9.5z"/>
	</g>
	<g class="st0">
		<path d="M87,11.7l-0.9,2.6h-1.2l3.3-8.9h1.4l3.2,8.9h-1.3l-0.9-2.6H87z M90.1,10.6l-1.3-3.9h0l-1.4,3.9H90.1z"/>
	</g>
</g>
<g class="st0">
	<path d="M97.5,14.3c-0.4,0-0.6-0.3-0.6-0.6c0-0.4,0.3-0.6,0.6-0.6c0.4,0,0.6,0.3,0.6,0.6C98.2,14.1,97.9,14.3,97.5,14.3z"/>
	<path d="M102.9,14.3c-0.4,0-0.6-0.3-0.6-0.6c0-0.4,0.3-0.6,0.6-0.6s0.6,0.3,0.6,0.6C103.6,14.1,103.3,14.3,102.9,14.3z"/>
	<path d="M108.3,14.3c-0.4,0-0.6-0.3-0.6-0.6c0-0.4,0.3-0.6,0.6-0.6s0.6,0.3,0.6,0.6C109,14.1,108.7,14.3,108.3,14.3z"/>
</g>
<g>
	<g class="st0">
		<path d="M115.3,9.3c0.2,0,0.4,0,0.6,0c0.8,0,1.7-0.3,1.7-1.4c0-0.5-0.3-1.4-1.6-1.4c-1.5,0-1.6,1.3-1.7,1.9h-1.1
			c0-1.3,0.5-2.8,2.8-2.8c1.7,0,2.7,1,2.7,2.3c0,1.1-0.6,1.6-1.1,1.8v0c0.8,0.3,1.4,0.9,1.4,2c0,1.4-0.9,2.8-3.1,2.8
			c-0.6,0-1.2-0.2-1.6-0.4c-1-0.5-1.2-1.5-1.3-2.5h1.1c0,0.8,0.2,1.9,1.9,1.9c1.1,0,1.9-0.7,1.9-1.7c0-1.5-1.3-1.6-2-1.6
			c-0.2,0-0.3,0-0.5,0V9.3z"/>
	</g>
</g>
<g class="st0">
	<path d="M120.2,7.7l1.8-1.8c0.1-0.1,0.3-0.3,0.5-0.3c0.3,0,0.4,0.2,0.4,0.5c0,0.2-0.2,0.4-0.4,0.5l-1.9,1.2H120.2z"/>
</g>
<g>
	<g class="st0">
		<path d="M2.6,24.9c0.2,0,0.4,0,0.6,0c0.8,0,1.7-0.3,1.7-1.4c0-0.5-0.3-1.4-1.6-1.4c-1.5,0-1.6,1.3-1.7,1.9H0.5
			c0-1.3,0.5-2.8,2.8-2.8c1.7,0,2.7,1,2.7,2.3c0,1.1-0.6,1.6-1.1,1.8v0c0.8,0.3,1.4,0.9,1.4,2c0,1.4-0.9,2.8-3.1,2.8
			c-0.6,0-1.2-0.2-1.6-0.4c-1-0.5-1.2-1.5-1.3-2.5h1.1c0,0.8,0.2,1.9,1.9,1.9c1.1,0,1.9-0.7,1.9-1.7c0-1.5-1.3-1.6-2-1.6
			c-0.2,0-0.3,0-0.5,0V24.9z"/>
	</g>
</g>
<g class="st0">
	<path d="M7.5,23.3l1.8-1.8c0.1-0.1,0.3-0.3,0.5-0.3c0.3,0,0.4,0.2,0.4,0.5c0,0.2-0.2,0.4-0.4,0.5L8,23.3H7.5z"/>
</g>
<g class="st0">
	<path d="M11.5,30c-0.4,0-0.6-0.3-0.6-0.6c0-0.4,0.3-0.6,0.6-0.6c0.4,0,0.6,0.3,0.6,0.6C12.1,29.7,11.9,30,11.5,30z"/>
	<path d="M16.9,30c-0.4,0-0.6-0.3-0.6-0.6c0-0.4,0.3-0.6,0.6-0.6c0.4,0,0.6,0.3,0.6,0.6C17.5,29.7,17.3,30,16.9,30z"/>
	<path d="M22.3,30c-0.4,0-0.6-0.3-0.6-0.6c0-0.4,0.3-0.6,0.6-0.6c0.4,0,0.6,0.3,0.6,0.6C22.9,29.7,22.7,30,22.3,30z"/>
</g>
<g>
	<g class="st0">
		<path d="M29.6,27.3l-0.9,2.6h-1.2l3.3-8.9h1.4l3.2,8.9H34l-0.9-2.6H29.6z M32.7,26.2l-1.3-3.9h0L30,26.2H32.7z"/>
	</g>
	<g class="st0">
		<path d="M42.9,25.1h3.9v4.8H46l-0.3-1.2c-0.6,0.8-1.7,1.4-2.9,1.4c-1.5,0-2.3-0.6-2.7-1c-1.4-1.3-1.4-2.8-1.4-3.7
			c0-2.2,1.3-4.6,4.2-4.6c1.7,0,3.5,0.9,3.8,2.9h-1.2c-0.4-1.5-1.7-1.9-2.7-1.9c-1.6,0-2.9,1.3-2.9,3.6c0,1.8,0.6,3.7,3,3.7
			c0.4,0,1.2,0,1.8-0.6c0.8-0.6,1-1.4,1-2.4h-2.8V25.1z"/>
	</g>
	<g class="st0">
		<path d="M51,21h7.2v1.1h-3v7.8H54v-7.8h-3V21z"/>
	</g>
	<g class="st0">
		<path d="M63.5,27.3l-0.9,2.6h-1.2l3.3-8.9H66l3.2,8.9h-1.3L67,27.3H63.5z M66.6,26.2l-1.3-3.9h0l-1.4,3.9H66.6z"/>
	</g>
	<g class="st0">
		<path d="M79.4,23.7c-0.3-1.6-1.6-1.8-2.5-1.8c-1.6,0-2.9,1.2-2.9,3.5c0,2.1,0.7,3.7,2.9,3.7c0.8,0,2.1-0.4,2.5-2.4h1.2
			c-0.5,3.4-3.2,3.5-3.9,3.5c-2,0-4-1.3-4-4.7c0-2.7,1.6-4.6,4.1-4.6c2.3,0,3.5,1.4,3.7,2.9H79.4z"/>
	</g>
	<g class="st0">
		<path d="M84.9,21h7.2v1.1h-3v7.8h-1.2v-7.8h-3V21z"/>
	</g>
</g>
<g class="st0">
	<path d="M97.5,30c-0.4,0-0.6-0.3-0.6-0.6c0-0.4,0.3-0.6,0.6-0.6c0.4,0,0.6,0.3,0.6,0.6C98.2,29.7,97.9,30,97.5,30z"/>
	<path d="M102.9,30c-0.4,0-0.6-0.3-0.6-0.6c0-0.4,0.3-0.6,0.6-0.6s0.6,0.3,0.6,0.6C103.6,29.7,103.3,30,102.9,30z"/>
	<path d="M108.3,30c-0.4,0-0.6-0.3-0.6-0.6c0-0.4,0.3-0.6,0.6-0.6s0.6,0.3,0.6,0.6C109,29.7,108.7,30,108.3,30z"/>
</g>
<g>
	<g class="st0">
		<path d="M115.1,24.8c0.4-0.3,0.9-0.5,1.7-0.5c1.4,0,2.9,1,2.9,2.8c0,1-0.4,3.1-3.2,3.1c-1.1,0-2.6-0.5-2.8-2.4h1.1
			c0.1,1,0.9,1.5,1.8,1.5c1.1,0,1.8-0.9,1.8-2c0-1.2-0.9-1.9-1.9-1.9c-0.6,0-1.2,0.3-1.6,0.8l-0.9,0l0.7-4.7h4.5v1.1h-3.7
			L115.1,24.8z"/>
	</g>
</g>
<g class="st0">
	<path d="M120.9,23.3l1.8-1.8c0.1-0.1,0.3-0.3,0.5-0.3c0.3,0,0.4,0.2,0.4,0.5c0,0.2-0.2,0.4-0.4,0.5l-1.9,1.2H120.9z"/>
</g>
</svg>
