<?xml version="1.0" encoding="utf-8"?>
<!-- Generator: Adobe Illustrator 24.0.1, SVG Export Plug-In . SVG Version: 6.00 Build 0)  -->
<svg version="1.1" id="Layer_1" xmlns="http://www.w3.org/2000/svg" xmlns:xlink="http://www.w3.org/1999/xlink" x="0px" y="0px"
	 viewBox="0 0 103.7 34.6" style="enable-background:new 0 0 103.7 34.6;" xml:space="preserve">
<style type="text/css">
	.st0{enable-background:new    ;}
</style>
<g>
	<g class="st0">
		<path d="M1.6,8.8C2,8.5,2.5,8.2,3.3,8.2c1.4,0,2.9,1,2.9,2.8c0,1-0.4,3.1-3.2,3.1c-1.1,0-2.6-0.5-2.8-2.4h1.1
			c0.1,1,0.9,1.5,1.8,1.5c1.1,0,1.8-0.9,1.8-2C5,9.9,4.1,9.2,3,9.2c-0.6,0-1.2,0.3-1.6,0.8l-0.9,0l0.7-4.7h4.5v1.1H2L1.6,8.8z"/>
	</g>
</g>
<g class="st0">
	<path d="M7.4,7.3l1.8-1.8c0.1-0.1,0.3-0.3,0.5-0.3c0.3,0,0.4,0.2,0.4,0.5c0,0.2-0.2,0.4-0.4,0.5L7.9,7.3H7.4z"/>
</g>
<g class="st0">
	<path d="M11.4,13.9c-0.4,0-0.6-0.3-0.6-0.6c0-0.4,0.3-0.6,0.6-0.6c0.4,0,0.6,0.3,0.6,0.6C12.1,13.6,11.8,13.9,11.4,13.9z"/>
	<path d="M16.8,13.9c-0.4,0-0.6-0.3-0.6-0.6c0-0.4,0.3-0.6,0.6-0.6c0.4,0,0.6,0.3,0.6,0.6C17.5,13.6,17.2,13.9,16.8,13.9z"/>
	<path d="M22.2,13.9c-0.4,0-0.6-0.3-0.6-0.6c0-0.4,0.3-0.6,0.6-0.6c0.4,0,0.6,0.3,0.6,0.6C22.9,13.6,22.6,13.9,22.2,13.9z"/>
</g>
<g class="st0">
	<path d="M27.4,5h7.2V6h-3v7.8h-1.2V6h-3V5z"/>
</g>
<g class="st0">
	<path d="M42.8,9.1h3.9v4.8h-0.8l-0.3-1.2c-0.6,0.8-1.7,1.4-2.9,1.4c-1.5,0-2.3-0.6-2.7-1c-1.4-1.3-1.4-2.8-1.4-3.7
		c0-2.2,1.3-4.6,4.2-4.6c1.7,0,3.5,0.9,3.8,2.9h-1.2c-0.4-1.5-1.7-1.9-2.7-1.9c-1.6,0-2.9,1.3-2.9,3.6c0,1.8,0.6,3.7,3,3.7
		c0.4,0,1.2,0,1.8-0.6c0.8-0.6,1-1.4,1-2.4h-2.8V9.1z"/>
</g>
<g class="st0">
	<path d="M57.2,7.6c-0.3-1.6-1.6-1.8-2.5-1.8c-1.6,0-2.9,1.2-2.9,3.5c0,2.1,0.7,3.7,2.9,3.7c0.8,0,2.1-0.4,2.5-2.4h1.2
		c-0.5,3.4-3.2,3.5-3.9,3.5c-2,0-4-1.3-4-4.7c0-2.7,1.6-4.6,4.1-4.6c2.3,0,3.5,1.4,3.7,2.9H57.2z"/>
</g>
<g class="st0">
	<path d="M64.4,11.3l-0.9,2.6h-1.2L65.6,5H67l3.2,8.9h-1.3L68,11.3H64.4z M67.5,10.2l-1.3-3.9h0l-1.4,3.9H67.5z"/>
</g>
<g class="st0">
	<path d="M76.6,13.9c-0.4,0-0.6-0.3-0.6-0.6c0-0.4,0.3-0.6,0.6-0.6s0.6,0.3,0.6,0.6C77.3,13.6,77,13.9,76.6,13.9z"/>
	<path d="M82,13.9c-0.4,0-0.6-0.3-0.6-0.6c0-0.4,0.3-0.6,0.6-0.6c0.4,0,0.6,0.3,0.6,0.6C82.7,13.6,82.4,13.9,82,13.9z"/>
	<path d="M87.4,13.9c-0.4,0-0.6-0.3-0.6-0.6c0-0.4,0.3-0.6,0.6-0.6c0.4,0,0.6,0.3,0.6,0.6C88.1,13.6,87.8,13.9,87.4,13.9z"/>
</g>
<g class="st0">
	<path d="M94.4,8.9c0.2,0,0.4,0,0.6,0c0.8,0,1.7-0.3,1.7-1.4c0-0.5-0.3-1.4-1.6-1.4c-1.5,0-1.6,1.3-1.7,1.9h-1.1
		c0-1.3,0.5-2.8,2.8-2.8c1.7,0,2.7,1,2.7,2.3c0,1.1-0.6,1.6-1.1,1.8v0c0.8,0.3,1.4,0.9,1.4,2c0,1.4-0.9,2.8-3.1,2.8
		c-0.6,0-1.2-0.2-1.6-0.4c-1-0.5-1.2-1.5-1.3-2.5h1.1c0,0.8,0.2,1.9,1.9,1.9c1.1,0,1.9-0.7,1.9-1.7c0-1.5-1.3-1.6-2-1.6
		c-0.2,0-0.3,0-0.5,0V8.9z"/>
</g>
<g class="st0">
	<path d="M99.3,7.3l1.8-1.8c0.1-0.1,0.3-0.3,0.5-0.3c0.3,0,0.4,0.2,0.4,0.5c0,0.2-0.2,0.4-0.4,0.5l-1.9,1.2H99.3z"/>
</g>
<g>
	<g class="st0">
		<path d="M2.5,24.5c0.2,0,0.4,0,0.6,0c0.8,0,1.7-0.3,1.7-1.4c0-0.5-0.3-1.4-1.6-1.4c-1.5,0-1.6,1.3-1.7,1.9H0.4
			c0-1.3,0.5-2.8,2.8-2.8c1.7,0,2.7,1,2.7,2.3c0,1.1-0.6,1.6-1.1,1.8v0c0.8,0.3,1.4,0.9,1.4,2c0,1.4-0.9,2.8-3.1,2.8
			c-0.6,0-1.2-0.2-1.6-0.4c-1-0.5-1.2-1.5-1.3-2.5h1.1c0,0.8,0.2,1.9,1.9,1.9c1.1,0,1.9-0.7,1.9-1.7c0-1.5-1.3-1.6-2-1.6
			c-0.2,0-0.3,0-0.5,0V24.5z"/>
	</g>
</g>
<g class="st0">
	<path d="M7.4,22.9l1.8-1.8c0.1-0.1,0.3-0.3,0.5-0.3c0.3,0,0.4,0.2,0.4,0.5c0,0.2-0.2,0.4-0.4,0.5l-1.9,1.2H7.4z"/>
</g>
<g class="st0">
	<path d="M11.4,29.5c-0.4,0-0.6-0.3-0.6-0.6c0-0.4,0.3-0.6,0.6-0.6c0.4,0,0.6,0.3,0.6,0.6C12.1,29.3,11.8,29.5,11.4,29.5z"/>
	<path d="M16.8,29.5c-0.4,0-0.6-0.3-0.6-0.6c0-0.4,0.3-0.6,0.6-0.6c0.4,0,0.6,0.3,0.6,0.6C17.5,29.3,17.2,29.5,16.8,29.5z"/>
	<path d="M22.2,29.5c-0.4,0-0.6-0.3-0.6-0.6c0-0.4,0.3-0.6,0.6-0.6c0.4,0,0.6,0.3,0.6,0.6C22.9,29.3,22.6,29.5,22.2,29.5z"/>
</g>
<g class="st0">
	<path d="M29.2,26.9l-0.9,2.6H27l3.3-8.9h1.4l3.2,8.9h-1.3l-0.9-2.6H29.2z M32.3,25.8L31,21.9h0l-1.4,3.9H32.3z"/>
</g>
<g class="st0">
	<path d="M45.5,23.3c-0.3-1.6-1.6-1.8-2.5-1.8c-1.6,0-2.9,1.2-2.9,3.5c0,2.1,0.7,3.7,2.9,3.7c0.8,0,2.1-0.4,2.5-2.4h1.2
		c-0.5,3.4-3.2,3.5-3.9,3.5c-2,0-4-1.3-4-4.7c0-2.7,1.6-4.6,4.1-4.6c2.3,0,3.5,1.4,3.7,2.9H45.5z"/>
</g>
<g class="st0">
	<path d="M54.5,24.7h3.9v4.8h-0.8l-0.3-1.2c-0.6,0.8-1.7,1.4-2.9,1.4c-1.5,0-2.3-0.6-2.7-1c-1.4-1.3-1.4-2.8-1.4-3.7
		c0-2.2,1.3-4.6,4.2-4.6c1.7,0,3.5,0.9,3.8,2.9h-1.2c-0.4-1.5-1.7-1.9-2.7-1.9c-1.6,0-2.9,1.3-2.9,3.6c0,1.8,0.6,3.7,3,3.7
		c0.4,0,1.2,0,1.8-0.6c0.8-0.6,1-1.4,1-2.4h-2.8V24.7z"/>
</g>
<g class="st0">
	<path d="M62.6,20.6h7.2v1.1h-3v7.8h-1.2v-7.8h-3V20.6z"/>
</g>
<g class="st0">
	<path d="M76.6,29.5c-0.4,0-0.6-0.3-0.6-0.6c0-0.4,0.3-0.6,0.6-0.6s0.6,0.3,0.6,0.6C77.3,29.3,77,29.5,76.6,29.5z"/>
	<path d="M82,29.5c-0.4,0-0.6-0.3-0.6-0.6c0-0.4,0.3-0.6,0.6-0.6c0.4,0,0.6,0.3,0.6,0.6C82.7,29.3,82.4,29.5,82,29.5z"/>
	<path d="M87.4,29.5c-0.4,0-0.6-0.3-0.6-0.6c0-0.4,0.3-0.6,0.6-0.6c0.4,0,0.6,0.3,0.6,0.6C88.1,29.3,87.8,29.5,87.4,29.5z"/>
</g>
<g class="st0">
	<path d="M94.2,24.4c0.4-0.3,0.9-0.5,1.7-0.5c1.4,0,2.9,1,2.9,2.8c0,1-0.4,3.1-3.2,3.1c-1.1,0-2.6-0.5-2.8-2.4h1.1
		c0.1,1,0.9,1.5,1.8,1.5c1.1,0,1.8-0.9,1.8-2c0-1.2-0.9-1.9-1.9-1.9c-0.6,0-1.2,0.3-1.6,0.8l-0.9,0l0.7-4.7h4.5V22h-3.7L94.2,24.4z"
		/>
</g>
<g class="st0">
	<path d="M100.1,22.9l1.8-1.8c0.1-0.1,0.3-0.3,0.5-0.3c0.3,0,0.4,0.2,0.4,0.5c0,0.2-0.2,0.4-0.4,0.5l-1.9,1.2H100.1z"/>
</g>
<g>
	<polygon points="48.4,5.9 45.2,0.4 51.6,0.4 	"/>
	<polygon points="45.6,34.2 48.8,28.7 52,34.2 	"/>
</g>
</svg>
