<?xml version="1.0" encoding="UTF-8" standalone="no"?>
<!DOCTYPE svg PUBLIC "-//W3C//DTD SVG 1.1//EN" "http://www.w3.org/Graphics/SVG/1.1/DTD/svg11.dtd">
<svg width="100%" height="100%" viewBox="0 0 1200 350" version="1.1" xmlns="http://www.w3.org/2000/svg" xmlns:xlink="http://www.w3.org/1999/xlink" xml:space="preserve" xmlns:serif="http://www.serif.com/" style="fill-rule:evenodd;clip-rule:evenodd;stroke-linecap:square;stroke-linejoin:round;">
    <g transform="matrix(0.925926,0,0,0.35,0,0)">
        <g transform="matrix(1.08,-0,-0,2.85714,0,0)">
        </g>
    </g>
    <g transform="matrix(1.22959,0,0,1.29121,-5905.82,-1585.07)">
        <path d="M5118.95,1334.13L5114.89,1347.44L5114.89,1347.45L5110.42,1362L5105.45,1378.22L5105.44,1378.23L5099.39,1397.68L5095.53,1396.48L5101.59,1377.04L5106.56,1360.82L5106.56,1360.81L5106.56,1360.82L5111.03,1346.26L5115.08,1332.95L5118.95,1334.13" style="fill:none;stroke:black;stroke-width:0.3px;"/>
    </g>
    <g transform="matrix(1.22959,0,0,1.29121,-5905.82,-1585.07)">
        <path d="M5118.95,1334.13L5114.89,1347.44L5114.89,1347.45L5110.42,1362L5108.49,1361.41L5110.42,1362L5105.45,1378.22L5105.44,1378.23L5099.39,1397.68L5095.53,1396.48L5101.59,1377.03L5103.52,1377.63L5101.59,1377.04L5106.56,1360.82L5106.56,1360.81L5106.56,1360.82L5111.03,1346.26L5112.96,1346.85L5111.03,1346.26L5115.08,1332.95L5118.95,1334.13" style="fill:rgb(203,98,138);fill-rule:nonzero;"/>
    </g>
    <g transform="matrix(1.22959,0,0,1.29121,-5905.82,-1585.07)">
        <path d="M5005.48,1474.25L5000.52,1478.59L4998.07,1475.8L5003.03,1471.46L5005.48,1474.25" style="fill:none;stroke:black;stroke-width:0.3px;"/>
    </g>
    <g transform="matrix(1.22959,0,0,1.29121,-5905.82,-1585.07)">
        <path d="M5005.48,1474.25L5000.52,1478.59L4998.07,1475.8L5003.03,1471.46L5005.48,1474.25" style="fill:rgb(105,98,203);fill-rule:nonzero;"/>
    </g>
    <g transform="matrix(1.22959,0,0,1.29121,-6640.88,-1566.16)">
        <path d="M6125.13,1451.61L6104.98,1439.52L6104.94,1439.5L6084.94,1426.8L6084.92,1426.79L6084.91,1426.78L6064.95,1413.56L6044.25,1400.38L6046.42,1396.98L6067.14,1410.16L6067.15,1410.17L6067.17,1410.18L6087.12,1423.4L6107.08,1436.07L6127.21,1448.14L6125.13,1451.61" style="fill:none;stroke:black;stroke-width:0.3px;"/>
    </g>
    <g transform="matrix(1.22959,0,0,1.29121,-6640.88,-1566.16)">
        <path d="M6125.13,1451.61L6104.98,1439.52C6104.97,1439.51 6104.95,1439.5 6104.94,1439.5L6084.94,1426.8C6084.93,1426.79 6084.92,1426.78 6084.91,1426.78L6064.94,1413.55L6066.05,1411.87L6064.97,1413.57L6044.25,1400.38L6046.42,1396.98L6067.14,1410.16C6067.15,1410.17 6067.16,1410.18 6067.17,1410.18L6087.14,1423.41L6086.02,1425.09L6087.1,1423.39L6107.1,1436.09L6106.02,1437.79L6107.06,1436.06L6127.21,1448.14L6125.13,1451.61" style="fill:rgb(203,98,157);fill-rule:nonzero;"/>
    </g>
    <g transform="matrix(1.22959,0,0,1.29121,-6640.88,-1566.16)">
        <path d="M5940.06,1327.02L5927.44,1318.33L5916.3,1310.66L5918.56,1307.38L5929.7,1315.05L5942.32,1323.73L5940.06,1327.02" style="fill:none;stroke:black;stroke-width:0.3px;"/>
    </g>
    <g transform="matrix(1.22959,0,0,1.29121,-6640.88,-1566.16)">
        <path d="M5940.06,1327.02L5927.44,1318.33L5916.3,1310.66L5918.56,1307.38L5929.7,1315.05L5928.57,1316.69L5929.7,1315.05L5942.32,1323.73L5940.06,1327.02" style="fill:rgb(185,98,203);fill-rule:nonzero;"/>
    </g>
    <g transform="matrix(1.22959,0,0,1.29121,-5905.82,-1585.07)">
        <path d="M5096.74,1383.6L5099.01,1391.55L5094.74,1392.77L5092.46,1384.83L5096.74,1383.6" style="fill:none;stroke:black;stroke-width:0.3px;"/>
    </g>
    <g transform="matrix(1.22959,0,0,1.29121,-5905.82,-1585.07)">
        <path d="M5096.74,1383.6L5099.01,1391.55L5094.74,1392.77L5092.46,1384.83L5096.74,1383.6" style="fill:rgb(203,175,98);fill-rule:nonzero;"/>
    </g>
    <g transform="matrix(1.22959,0,0,1.29121,-5905.82,-1585.07)">
        <path d="M5088.46,1419.02L5092.74,1401.25L5098.24,1402.58L5093.96,1420.35L5088.46,1419.02" style="fill:none;stroke:black;stroke-width:0.3px;"/>
    </g>
    <g transform="matrix(1.22959,0,0,1.29121,-5905.82,-1585.07)">
        <path d="M5088.46,1419.02L5092.74,1401.25L5098.24,1402.58L5093.96,1420.35L5088.46,1419.02" style="fill:rgb(203,138,98);fill-rule:nonzero;"/>
    </g>
    <g transform="matrix(1.22959,0,0,1.29121,-6640.88,-1566.16)">
        <path d="M6031.66,1385.43L6042.36,1393.3L6039.93,1396.6L6029.23,1388.73L6031.66,1385.43" style="fill:none;stroke:black;stroke-width:0.3px;"/>
    </g>
    <g transform="matrix(1.22959,0,0,1.29121,-6640.88,-1566.16)">
        <path d="M6031.66,1385.43L6042.36,1393.3L6039.93,1396.6L6029.23,1388.73L6031.66,1385.43" style="fill:rgb(203,98,175);fill-rule:nonzero;"/>
    </g>
    <g transform="matrix(1.22959,0,0,1.29121,-6640.88,-1566.16)">
        <path d="M6132.92,1453.19L6127.62,1465.76L6123.33,1477.11L6119.42,1475.64L6123.73,1464.25L6123.74,1464.21L6123.76,1464.17L6129.08,1451.57L6132.92,1453.19" style="fill:none;stroke:black;stroke-width:0.3px;"/>
    </g>
    <g transform="matrix(1.22959,0,0,1.29121,-6640.88,-1566.16)">
        <path d="M6132.92,1453.19L6127.6,1465.8L6125.68,1464.98L6127.63,1465.72L6123.33,1477.11L6119.42,1475.64L6123.73,1464.25C6123.74,1464.22 6123.75,1464.2 6123.76,1464.17L6129.08,1451.57L6132.92,1453.19" style="fill:rgb(203,119,98);fill-rule:nonzero;"/>
    </g>
    <g transform="matrix(1.22959,0,0,1.29121,-5905.82,-1585.07)">
        <path d="M5107.73,1417.88L5097.43,1420.35L5096.45,1416.3L5106.76,1413.82L5107.73,1417.88" style="fill:none;stroke:black;stroke-width:0.3px;"/>
    </g>
    <g transform="matrix(1.22959,0,0,1.29121,-5905.82,-1585.07)">
        <path d="M5107.73,1417.88L5097.43,1420.35L5096.45,1416.3L5106.76,1413.82L5107.73,1417.88" style="fill:rgb(203,183,98);fill-rule:nonzero;"/>
    </g>
    <g transform="matrix(1.22959,0,0,1.29121,-5905.82,-1585.07)">
        <path d="M5026.25,1484.82L5041.06,1499.06L5041.08,1499.09L5041.11,1499.12L5054.17,1512.67L5054.18,1512.68L5066.19,1525.29L5066.19,1525.3L5066.2,1525.31L5076.93,1536.84L5076.96,1536.87L5086.45,1547.54L5083.63,1550.06L5074.14,1539.4L5063.44,1527.9L5051.44,1515.29L5038.41,1501.77L5023.62,1487.55L5026.25,1484.82" style="fill:none;stroke:black;stroke-width:0.3px;"/>
    </g>
    <g transform="matrix(1.22959,0,0,1.29121,-5905.82,-1585.07)">
        <path d="M5026.25,1484.82L5041.06,1499.06C5041.08,1499.08 5041.09,1499.1 5041.11,1499.12L5054.17,1512.67L5054.18,1512.68L5066.19,1525.29C5066.19,1525.3 5066.2,1525.31 5066.2,1525.31L5076.93,1536.84C5076.94,1536.85 5076.95,1536.86 5076.96,1536.87L5086.45,1547.54L5083.63,1550.06L5074.13,1539.39L5075.54,1538.13L5074.15,1539.42L5063.43,1527.89L5064.82,1526.6L5063.44,1527.91L5051.43,1515.29L5052.81,1513.98L5051.44,1515.3L5038.38,1501.74L5039.75,1500.43L5038.43,1501.79L5023.62,1487.55L5026.25,1484.82" style="fill:rgb(127,203,98);fill-rule:nonzero;"/>
    </g>
    <g transform="matrix(1.22959,0,0,1.29121,-5905.82,-1585.07)">
        <path d="M5113.05,1412.14L5129.42,1415.65L5143.45,1418.49L5142.7,1422.23L5128.65,1419.39L5128.63,1419.39L5112.25,1415.88L5113.05,1412.14" style="fill:none;stroke:black;stroke-width:0.3px;"/>
    </g>
    <g transform="matrix(1.22959,0,0,1.29121,-5905.82,-1585.07)">
        <path d="M5113.05,1412.14L5129.43,1415.66L5129.03,1417.52L5129.41,1415.65L5143.45,1418.49L5142.7,1422.23L5128.65,1419.39L5128.63,1419.39L5112.25,1415.88L5113.05,1412.14" style="fill:rgb(162,203,98);fill-rule:nonzero;"/>
    </g>
    <g transform="matrix(1.22959,0,0,1.29121,-5905.82,-1585.07)">
        <path d="M5023.1,1456.69L5010.85,1470.06L5007.75,1467.22L5020,1453.84L5023.1,1456.69" style="fill:none;stroke:black;stroke-width:0.3px;"/>
    </g>
    <g transform="matrix(1.22959,0,0,1.29121,-5905.82,-1585.07)">
        <path d="M5023.1,1456.69L5010.85,1470.06L5007.75,1467.22L5020,1453.84L5023.1,1456.69" style="fill:rgb(119,98,203);fill-rule:nonzero;"/>
    </g>
    <g transform="matrix(1.22959,0,0,1.29121,-5905.82,-1585.07)">
        <path d="M4970.8,1497.16L4993.14,1479.84L4995.55,1482.95L4973.22,1500.27L4970.8,1497.16" style="fill:none;stroke:black;stroke-width:0.3px;"/>
    </g>
    <g transform="matrix(1.22959,0,0,1.29121,-5905.82,-1585.07)">
        <path d="M4970.8,1497.16L4993.14,1479.84L4995.55,1482.95L4973.22,1500.27L4970.8,1497.16" style="fill:rgb(203,101,98);fill-rule:nonzero;"/>
    </g>
    <g transform="matrix(1.22959,0,0,1.29121,-5905.82,-1585.07)">
        <path d="M5298.05,1242.13L5291.59,1253.15L5291.57,1253.19L5284.6,1264.52L5284.58,1264.56L5276.85,1276.46L5276.83,1276.48L5276.82,1276.51L5268.3,1288.77L5268.28,1288.8L5268.25,1288.83L5258.86,1301.32L5258.84,1301.35L5258.81,1301.38L5248.44,1313.99L5248.41,1314.02L5248.38,1314.06L5236.9,1326.69L5236.87,1326.72L5236.84,1326.76L5224.16,1339.34L5224.09,1339.41L5210.12,1351.92L5210.09,1351.95L5210.05,1351.98L5194.74,1364.4L5194.71,1364.42L5194.67,1364.45L5177.96,1376.76L5177.92,1376.79L5177.89,1376.81L5159.7,1388.98L5159.67,1389L5159.63,1389.03L5139.87,1400.93L5139.85,1400.94L5139.84,1400.95L5118.64,1413.19L5116.73,1409.88L5137.91,1397.65L5157.62,1385.78L5175.73,1373.66L5192.37,1361.4L5207.61,1349.04L5221.5,1336.6L5234.11,1324.08L5245.52,1311.52L5255.84,1298.99L5265.18,1286.56L5273.66,1274.35L5281.36,1262.5L5288.3,1251.21L5294.75,1240.2L5298.05,1242.13" style="fill:none;stroke:black;stroke-width:0.3px;"/>
    </g>
    <g transform="matrix(1.22959,0,0,1.29121,-5905.82,-1585.07)">
        <path d="M5298.05,1242.13L5291.59,1253.15C5291.58,1253.17 5291.58,1253.18 5291.57,1253.19L5284.6,1264.52C5284.59,1264.54 5284.59,1264.55 5284.58,1264.56L5276.85,1276.46C5276.84,1276.47 5276.83,1276.49 5276.82,1276.51L5268.3,1288.77C5268.28,1288.79 5268.27,1288.81 5268.25,1288.83L5258.86,1301.32C5258.85,1301.34 5258.83,1301.36 5258.81,1301.38L5248.44,1313.99C5248.42,1314.01 5248.4,1314.03 5248.38,1314.06L5236.9,1326.69C5236.88,1326.71 5236.86,1326.73 5236.84,1326.76L5224.16,1339.34C5224.13,1339.37 5224.11,1339.39 5224.09,1339.41L5210.12,1351.92C5210.1,1351.94 5210.08,1351.96 5210.05,1351.98L5194.74,1364.4C5194.72,1364.41 5194.69,1364.43 5194.67,1364.45L5177.96,1376.76C5177.94,1376.78 5177.91,1376.8 5177.89,1376.81L5159.7,1388.98C5159.68,1389 5159.65,1389.01 5159.63,1389.03L5139.87,1400.93C5139.86,1400.94 5139.85,1400.95 5139.84,1400.95L5118.64,1413.19L5116.73,1409.88L5137.93,1397.64L5138.88,1399.3L5137.9,1397.66L5157.65,1385.75L5158.64,1387.39L5157.58,1385.8L5175.76,1373.64L5176.83,1375.22L5175.69,1373.69L5192.4,1361.37L5193.54,1362.91L5192.33,1361.43L5207.64,1349.01L5208.85,1350.49L5207.57,1349.07L5221.54,1336.56L5222.81,1337.99L5221.46,1336.63L5234.14,1324.04L5235.49,1325.4L5234.08,1324.11L5245.55,1311.49L5246.96,1312.77L5245.49,1311.56L5255.86,1298.95L5257.34,1300.17L5255.81,1299.02L5265.2,1286.53L5266.73,1287.68L5265.16,1286.59L5273.68,1274.33L5275.25,1275.42L5273.64,1274.37L5281.37,1262.48L5282.97,1263.52L5281.35,1262.52L5288.31,1251.19L5289.94,1252.19L5288.29,1251.22L5294.75,1240.2L5298.05,1242.13" style="fill:rgb(98,203,120);fill-rule:nonzero;"/>
    </g>
    <g transform="matrix(1.22959,0,0,1.29121,-6640.88,-1566.16)">
        <path d="M6361.35,1312.55L6355.28,1324.89L6355.28,1324.9L6355.27,1324.92L6348.8,1337.54L6348.78,1337.57L6348.77,1337.59L6341.52,1350.67L6341.49,1350.71L6341.47,1350.75L6333.29,1363.95L6333.26,1364.01L6333.22,1364.06L6323.98,1377.09L6323.94,1377.15L6323.9,1377.2L6323.89,1377.2L6313.5,1389.85L6313.45,1389.91L6313.4,1389.96L6301.84,1402.04L6301.79,1402.1L6301.73,1402.15L6289.01,1413.56L6288.95,1413.61L6288.9,1413.65L6275.05,1424.33L6274.99,1424.37L6274.94,1424.41L6260,1434.33L6259.95,1434.36L6259.89,1434.39L6243.9,1443.58L6243.86,1443.61L6243.81,1443.63L6226.81,1452.17L6226.73,1452.21L6208.8,1460.22L6208.72,1460.26L6189.68,1467.69L6188.26,1464.06L6207.25,1456.64L6225.1,1448.67L6242.01,1440.17L6257.89,1431.04L6272.72,1421.19L6286.45,1410.6L6299.07,1399.29L6310.53,1387.31L6320.84,1374.78L6330,1361.85L6338.13,1348.74L6345.34,1335.73L6351.79,1323.15L6357.85,1310.83L6361.35,1312.55" style="fill:none;stroke:black;stroke-width:0.3px;"/>
    </g>
    <g transform="matrix(1.22959,0,0,1.29121,-6640.88,-1566.16)">
        <path d="M6361.35,1312.55L6355.28,1324.89C6355.28,1324.9 6355.27,1324.91 6355.27,1324.92L6348.8,1337.54C6348.79,1337.56 6348.78,1337.57 6348.77,1337.59L6341.52,1350.67C6341.5,1350.7 6341.49,1350.73 6341.47,1350.75L6333.29,1363.95C6333.27,1363.99 6333.25,1364.02 6333.22,1364.06L6323.98,1377.09C6323.95,1377.13 6323.92,1377.17 6323.9,1377.2L6323.89,1377.2L6313.5,1389.85C6313.47,1389.89 6313.44,1389.92 6313.4,1389.96L6301.84,1402.04C6301.8,1402.08 6301.77,1402.11 6301.73,1402.15L6289.01,1413.56C6288.97,1413.59 6288.93,1413.62 6288.9,1413.65L6275.05,1424.33C6275.01,1424.36 6274.97,1424.38 6274.94,1424.41L6260,1434.33C6259.96,1434.35 6259.93,1434.37 6259.89,1434.39L6243.9,1443.58C6243.87,1443.6 6243.84,1443.62 6243.81,1443.63L6226.81,1452.17C6226.78,1452.19 6226.76,1452.2 6226.73,1452.21L6208.8,1460.22C6208.77,1460.24 6208.75,1460.25 6208.72,1460.26L6189.68,1467.69L6188.26,1464.06L6207.3,1456.62L6208.01,1458.44L6207.21,1456.66L6225.14,1448.65L6225.93,1450.43L6225.06,1448.69L6242.05,1440.15L6242.93,1441.89L6241.96,1440.2L6257.95,1431.01L6258.92,1432.7L6257.84,1431.08L6272.78,1421.16L6273.86,1422.78L6272.66,1421.24L6286.51,1410.56L6287.7,1412.11L6286.4,1410.65L6299.12,1399.24L6300.43,1400.69L6299.02,1399.35L6310.58,1387.26L6311.99,1388.61L6310.49,1387.37L6320.88,1374.73L6322.39,1375.96L6320.8,1374.84L6330.04,1361.8L6331.63,1362.93L6329.97,1361.9L6338.15,1348.7L6339.81,1349.72L6338.1,1348.78L6345.35,1335.7L6347.06,1336.65L6345.32,1335.76L6351.8,1323.14L6353.53,1324.03L6351.78,1323.17L6357.85,1310.83L6361.35,1312.55" style="fill:rgb(122,203,98);fill-rule:nonzero;"/>
    </g>
    <g transform="matrix(1.22959,0,0,1.29121,-6640.88,-1566.16)">
        <path d="M5944.52,1321.99L5941.14,1314.49L5944.65,1312.91L5948.03,1320.41L5944.52,1321.99" style="fill:none;stroke:black;stroke-width:0.3px;"/>
    </g>
    <g transform="matrix(1.22959,0,0,1.29121,-6640.88,-1566.16)">
        <path d="M5944.52,1321.99L5941.14,1314.49L5944.65,1312.91L5948.03,1320.41L5944.52,1321.99" style="fill:rgb(98,131,203);fill-rule:nonzero;"/>
    </g>
    <g transform="matrix(1.22959,0,0,1.29121,-5905.82,-1585.07)">
        <path d="M5086.73,1424.32L5069.13,1432.68L5069.13,1432.69L5051.12,1441.21L5032.69,1449.91L5030.69,1445.68L5049.12,1436.97L5067.13,1428.46L5084.72,1420.09L5086.73,1424.32" style="fill:none;stroke:black;stroke-width:0.3px;"/>
    </g>
    <g transform="matrix(1.22959,0,0,1.29121,-5905.82,-1585.07)">
        <path d="M5086.73,1424.32L5069.13,1432.68L5069.13,1432.69L5051.12,1441.21L5032.69,1449.91L5030.69,1445.68L5049.12,1436.97L5050.12,1439.09L5049.12,1436.97L5067.13,1428.45L5068.13,1430.57L5067.12,1428.46L5084.72,1420.09L5086.73,1424.32" style="fill:rgb(182,203,98);fill-rule:nonzero;"/>
    </g>
    <g transform="matrix(1.22959,0,0,1.29121,-6640.88,-1566.16)">
        <path d="M6044.75,1390L6051.14,1387.68L6052.46,1391.34L6046.08,1393.66L6044.75,1390" style="fill:none;stroke:black;stroke-width:0.3px;"/>
    </g>
    <g transform="matrix(1.22959,0,0,1.29121,-6640.88,-1566.16)">
        <path d="M6044.75,1390L6051.14,1387.68L6052.46,1391.34L6046.08,1393.66L6044.75,1390" style="fill:rgb(133,203,98);fill-rule:nonzero;"/>
    </g>
    <g transform="matrix(1.22959,0,0,1.29121,-6640.88,-1566.16)">
        <path d="M6009.99,1371.83L5995.07,1357.9L5979.38,1346.14L5962.45,1336.73L5964.28,1333.43L5981.33,1342.89L5981.44,1342.96L5981.54,1343.03L5997.5,1355L5997.57,1355.07L6012.57,1369.07L6009.99,1371.83" style="fill:none;stroke:black;stroke-width:0.3px;"/>
    </g>
    <g transform="matrix(1.22959,0,0,1.29121,-6640.88,-1566.16)">
        <path d="M6009.99,1371.83L5994.99,1357.83L5996.28,1356.45L5995.15,1357.96L5979.27,1346.06L5980.41,1344.55L5979.49,1346.2L5962.45,1336.73L5964.28,1333.43L5981.33,1342.89C5981.4,1342.94 5981.47,1342.98 5981.54,1343.03L5997.42,1354.94C5997.47,1354.98 5997.52,1355.02 5997.57,1355.07L6012.57,1369.07L6009.99,1371.83" style="fill:rgb(98,203,171);fill-rule:nonzero;"/>
    </g>
    <g transform="matrix(1.22959,0,0,1.29121,-5905.82,-1585.07)">
        <path d="M4946.91,1515.11L4956.43,1507.93L4965.32,1499.59L4968,1502.45L4959.04,1510.86L4958.96,1510.93L4958.87,1511L4949.26,1518.24L4946.91,1515.11" style="fill:none;stroke:black;stroke-width:0.3px;"/>
    </g>
    <g transform="matrix(1.22959,0,0,1.29121,-6640.88,-1566.16)">
        <path d="M6187.78,1472.13L6196.13,1489.06L6196.14,1489.07L6196.14,1489.08L6203.73,1504.85L6210.81,1519.26L6217.48,1532.53L6213.95,1534.31L6207.27,1521.03L6207.27,1521.02L6200.17,1506.59L6200.17,1506.58L6200.16,1506.58L6192.58,1490.8L6184.23,1473.88L6187.78,1472.13" style="fill:none;stroke:black;stroke-width:0.3px;"/>
    </g>
    <g transform="matrix(1.22959,0,0,1.29121,-6640.88,-1566.16)">
        <path d="M6187.78,1472.13L6196.13,1489.06C6196.14,1489.07 6196.14,1489.08 6196.14,1489.08L6203.73,1504.86L6201.95,1505.72L6203.72,1504.85L6210.82,1519.27L6209.04,1520.14L6210.81,1519.25L6217.48,1532.53L6213.95,1534.31L6207.27,1521.03L6207.27,1521.02L6200.17,1506.59C6200.17,1506.59 6200.17,1506.58 6200.16,1506.58L6192.58,1490.8L6194.36,1489.94L6192.58,1490.81L6184.23,1473.88L6187.78,1472.13" style="fill:rgb(203,98,203);fill-rule:nonzero;"/>
    </g>
    <g transform="matrix(1.22959,0,0,1.29121,-5905.82,-1585.07)">
        <path d="M4994.52,1476.24L4984.03,1473.11L4985.15,1469.37L4995.64,1472.5L4994.52,1476.24" style="fill:none;stroke:black;stroke-width:0.3px;"/>
    </g>
    <g transform="matrix(1.22959,0,0,1.29121,-5905.82,-1585.07)">
        <path d="M4994.52,1476.24L4984.03,1473.11L4985.15,1469.37L4995.64,1472.5L4994.52,1476.24" style="fill:rgb(203,141,98);fill-rule:nonzero;"/>
    </g>
    <g transform="matrix(1.22959,0,0,1.29121,-6640.88,-1566.16)">
        <path d="M6006.83,1376.5L5989.18,1366.72L5989.08,1366.66L5988.99,1366.6L5972.99,1355.17L5972.88,1355.08L5972.78,1355L5958.66,1341.75L5961.42,1338.8L5975.44,1351.96L5991.24,1363.25L6008.79,1372.97L6006.83,1376.5" style="fill:none;stroke:black;stroke-width:0.3px;"/>
    </g>
    <g transform="matrix(1.22959,0,0,1.29121,-6640.88,-1566.16)">
        <path d="M6006.83,1376.5L5989.18,1366.72C5989.11,1366.68 5989.05,1366.64 5988.99,1366.6L5972.99,1355.17C5972.91,1355.11 5972.85,1355.06 5972.78,1355L5958.66,1341.75L5961.42,1338.8L5975.54,1352.05L5974.16,1353.53L5975.33,1351.88L5991.33,1363.32L5990.16,1364.96L5991.14,1363.19L6008.79,1372.97L6006.83,1376.5" style="fill:rgb(183,203,98);fill-rule:nonzero;"/>
    </g>
    <g transform="matrix(1.22959,0,0,1.29121,-5905.82,-1585.07)">
        <path d="M5034.59,1486.13L5025.87,1481.86L5027.54,1478.45L5036.26,1482.73L5034.59,1486.13" style="fill:none;stroke:black;stroke-width:0.3px;"/>
    </g>
    <g transform="matrix(1.22959,0,0,1.29121,-5905.82,-1585.07)">
        <path d="M5034.59,1486.13L5025.87,1481.86L5027.54,1478.45L5036.26,1482.73L5034.59,1486.13" style="fill:rgb(203,98,162);fill-rule:nonzero;"/>
    </g>
    <g transform="matrix(1.22959,0,0,1.29121,-6640.88,-1566.16)">
        <path d="M6014.26,1373.76L6026.91,1382.21L6024.69,1385.54L6012.03,1377.09L6014.26,1373.76" style="fill:none;stroke:black;stroke-width:0.3px;"/>
    </g>
    <g transform="matrix(1.22959,0,0,1.29121,-6640.88,-1566.16)">
        <path d="M6014.26,1373.76L6026.91,1382.21L6024.69,1385.54L6012.03,1377.09L6014.26,1373.76" style="fill:rgb(203,147,98);fill-rule:nonzero;"/>
    </g>
    <g transform="matrix(1.22959,0,0,1.29121,-6640.88,-1566.16)">
        <path d="M6029.67,1392.79L6024.53,1400.28L6021.42,1398.15L6026.56,1390.66L6029.67,1392.79" style="fill:none;stroke:black;stroke-width:0.3px;"/>
    </g>
    <g transform="matrix(1.22959,0,0,1.29121,-6640.88,-1566.16)">
        <path d="M6029.67,1392.79L6024.53,1400.28L6021.42,1398.15L6026.56,1390.66L6029.67,1392.79" style="fill:rgb(98,194,203);fill-rule:nonzero;"/>
    </g>
    <g transform="matrix(1.22959,0,0,1.29121,-6640.88,-1566.16)">
        <path d="M5956.93,1336.99L5945.07,1328.06L5947.51,1324.83L5959.37,1333.75L5956.93,1336.99" style="fill:none;stroke:black;stroke-width:0.3px;"/>
    </g>
    <g transform="matrix(1.22959,0,0,1.29121,-6640.88,-1566.16)">
        <path d="M5956.93,1336.99L5945.07,1328.06L5947.51,1324.83L5959.37,1333.75L5956.93,1336.99" style="fill:rgb(98,180,203);fill-rule:nonzero;"/>
    </g>
    <g transform="matrix(1.22959,0,0,1.29121,-5905.82,-1585.07)">
        <path d="M5014.88,1470.87L5023.35,1480.52L5020.39,1483.12L5011.91,1473.47L5014.88,1470.87" style="fill:none;stroke:black;stroke-width:0.3px;"/>
    </g>
    <g transform="matrix(1.22959,0,0,1.29121,-5905.82,-1585.07)">
        <path d="M5014.88,1470.87L5023.35,1480.52L5020.39,1483.12L5011.91,1473.47L5014.88,1470.87" style="fill:rgb(98,203,194);fill-rule:nonzero;"/>
    </g>
    <g transform="matrix(1.22959,0,0,1.29121,-5905.82,-1585.07)">
        <path d="M4828.16,1239.23L4837.56,1247.71L4847.41,1256.46L4857.95,1265.77L4857.95,1265.78L4857.96,1265.78L4869.02,1275.62L4869.02,1275.63L4869.03,1275.63L4880.52,1286L4880.53,1286L4880.54,1286.01L4892.4,1296.92L4892.42,1296.94L4904.63,1308.42L4904.65,1308.43L4904.66,1308.44L4917.2,1320.55L4917.22,1320.56L4917.23,1320.57L4930.09,1333.37L4930.12,1333.4L4943.28,1346.96L4943.3,1346.98L4943.31,1347L4956.75,1361.4L4956.77,1361.42L4956.78,1361.44L4970.48,1376.73L4970.52,1376.77L4984.48,1393.01L4984.5,1393.04L4984.51,1393.06L4998.74,1410.31L4998.75,1410.34L4998.77,1410.36L5013.29,1428.79L5013.32,1428.82L5013.34,1428.86L5028.21,1449.06L5023.84,1452.27L5009,1432.11L4994.53,1413.74L4980.35,1396.53L4966.42,1380.33L4952.76,1365.08L4939.36,1350.72L4926.25,1337.2L4913.42,1324.44L4900.9,1312.36L4888.72,1300.9L4876.87,1290.02L4865.4,1279.67L4854.35,1269.84L4843.82,1260.52L4843.81,1260.52L4833.95,1251.76L4833.94,1251.76L4833.93,1251.75L4824.52,1243.26L4828.16,1239.23" style="fill:none;stroke:black;stroke-width:0.3px;"/>
    </g>
    <g transform="matrix(1.22959,0,0,1.29121,-5905.82,-1585.07)">
        <path d="M4828.16,1239.23L4837.57,1247.72L4835.75,1249.73L4837.55,1247.71L4847.42,1256.46L4845.61,1258.49L4847.41,1256.46L4857.95,1265.77C4857.95,1265.78 4857.96,1265.78 4857.96,1265.78L4869.02,1275.62L4869.03,1275.63L4880.52,1286C4880.52,1286 4880.53,1286.01 4880.54,1286.01L4892.4,1296.92C4892.41,1296.92 4892.41,1296.93 4892.42,1296.94L4904.63,1308.42C4904.64,1308.42 4904.65,1308.43 4904.66,1308.44L4917.2,1320.55C4917.21,1320.56 4917.22,1320.56 4917.23,1320.57L4930.09,1333.37C4930.1,1333.38 4930.11,1333.39 4930.12,1333.4L4943.28,1346.96C4943.29,1346.98 4943.3,1346.99 4943.31,1347L4956.75,1361.4C4956.76,1361.41 4956.77,1361.42 4956.78,1361.44L4970.48,1376.73C4970.5,1376.74 4970.51,1376.76 4970.52,1376.77L4984.48,1393.01C4984.49,1393.03 4984.5,1393.04 4984.51,1393.06L4998.74,1410.31C4998.75,1410.33 4998.76,1410.35 4998.77,1410.36L5013.29,1428.79C5013.31,1428.81 5013.32,1428.83 5013.34,1428.86L5028.21,1449.06L5023.84,1452.27L5008.97,1432.07L5011.16,1430.47L5009.03,1432.14L4994.51,1413.72L4996.64,1412.04L4994.55,1413.77L4980.33,1396.51L4982.42,1394.78L4980.36,1396.55L4966.4,1380.31L4968.46,1378.54L4966.44,1380.35L4952.74,1365.06L4954.76,1363.25L4952.78,1365.1L4939.35,1350.7L4941.33,1348.85L4939.38,1350.74L4926.23,1337.18L4928.18,1335.29L4926.26,1337.22L4913.4,1324.42L4915.32,1322.5L4913.43,1324.45L4900.89,1312.35L4902.77,1310.39L4900.92,1312.37L4888.7,1300.89L4890.56,1298.91L4888.73,1300.91L4876.86,1290.01L4878.7,1288.01L4876.88,1290.03L4865.4,1279.66L4867.21,1277.65L4865.41,1279.67L4854.35,1269.83L4856.15,1267.81L4854.36,1269.84L4843.82,1260.52L4843.81,1260.52L4833.95,1251.76C4833.94,1251.76 4833.94,1251.75 4833.93,1251.75L4824.52,1243.26L4828.16,1239.23" style="fill:rgb(203,185,98);fill-rule:nonzero;"/>
    </g>
    <g transform="matrix(1.22959,0,0,1.29121,-6640.88,-1566.16)">
        <path d="M6136.68,1452.39L6152.6,1457.37L6168.4,1461.94L6184.63,1466.14L6183.63,1470.02L6167.36,1465.82L6167.34,1465.81L6167.31,1465.8L6151.47,1461.22L6151.45,1461.21L6151.43,1461.21L6135.48,1456.22L6136.68,1452.39" style="fill:none;stroke:black;stroke-width:0.3px;"/>
    </g>
    <g transform="matrix(1.22959,0,0,1.29121,-6640.88,-1566.16)">
        <path d="M6136.68,1452.39L6152.62,1457.38L6152.03,1459.29L6152.58,1457.37L6168.42,1461.95L6167.87,1463.88L6168.37,1461.94L6184.63,1466.14L6183.63,1470.02L6167.36,1465.82C6167.34,1465.81 6167.33,1465.81 6167.31,1465.8L6151.47,1461.22C6151.45,1461.22 6151.44,1461.21 6151.43,1461.21L6135.48,1456.22L6136.68,1452.39" style="fill:rgb(119,203,98);fill-rule:nonzero;"/>
    </g>
    <g transform="matrix(1.22959,0,0,1.29121,-6640.88,-1566.16)">
        <path d="M6126.17,1449.87C6128.5,1451.27 6132.06,1449.87 6131,1452.38" style="fill:none;stroke:black;stroke-opacity:0.7;stroke-width:1.5px;stroke-linecap:round;stroke-linejoin:bevel;"/>
    </g>
    <g transform="matrix(1.22959,0,0,1.29121,-5905.82,-1585.07)">
        <path d="M5091.21,1419.68C5090.5,1422.62 5088.45,1420.91 5085.72,1422.2" style="fill:none;stroke:black;stroke-opacity:0.7;stroke-width:1.5px;stroke-linecap:round;stroke-linejoin:bevel;"/>
    </g>
    <g transform="matrix(1.22959,0,0,1.29121,-6640.88,-1566.16)">
        <path d="M6030.44,1387.08C6028.35,1385.54 6029.58,1389.58 6028.11,1391.73" style="fill:none;stroke:black;stroke-opacity:0.7;stroke-width:1.5px;stroke-linecap:round;stroke-linejoin:bevel;"/>
    </g>
    <g transform="matrix(1.22959,0,0,1.29121,-6640.88,-1566.16)">
        <path d="M6131,1452.38C6132.06,1449.88 6133.49,1453.5 6136.08,1454.31" style="fill:none;stroke:black;stroke-opacity:0.7;stroke-width:1.5px;stroke-linecap:round;stroke-linejoin:bevel;"/>
    </g>
    <g transform="matrix(1.22959,0,0,1.29121,-5905.82,-1585.07)">
        <path d="M5107.24,1415.85C5110.02,1415.18 5109.86,1413.41 5112.65,1414.01" style="fill:none;stroke:black;stroke-opacity:0.7;stroke-width:1.5px;stroke-linecap:round;stroke-linejoin:bevel;"/>
    </g>
    <g transform="matrix(1.22959,0,0,1.29121,-6640.88,-1566.16)">
        <path d="M6011.28,1370.45C6013.22,1372.26 6010.93,1373.95 6013.15,1375.43" style="fill:none;stroke:black;stroke-opacity:0.7;stroke-width:1.5px;stroke-linecap:round;stroke-linejoin:bevel;"/>
    </g>
    <g transform="matrix(1.22959,0,0,1.29121,-6640.88,-1566.16)">
        <path d="M6007.81,1374.73C6010.16,1376.04 6010.91,1373.93 6013.15,1375.43" style="fill:none;stroke:black;stroke-opacity:0.7;stroke-width:1.5px;stroke-linecap:round;stroke-linejoin:bevel;"/>
    </g>
    <g transform="matrix(1.22959,0,0,1.29121,-5905.82,-1585.07)">
        <path d="M5117.69,1411.54C5115.26,1412.94 5109.9,1413.42 5112.65,1414.01" style="fill:none;stroke:black;stroke-opacity:0.7;stroke-width:1.5px;stroke-linecap:round;stroke-linejoin:bevel;"/>
    </g>
    <g transform="matrix(1.22959,0,0,1.29121,-5905.82,-1585.07)">
        <path d="M5009.3,1468.64C5007.08,1471.06 5006.72,1470.69 5004.25,1472.85" style="fill:none;stroke:black;stroke-opacity:0.7;stroke-width:1.5px;stroke-linecap:round;stroke-linejoin:bevel;"/>
    </g>
    <g transform="matrix(1.22959,0,0,1.29121,-5905.82,-1585.07)">
        <path d="M5009.3,1468.64C5007.47,1470.63 5011.61,1470.14 5013.39,1472.17" style="fill:none;stroke:black;stroke-opacity:0.7;stroke-width:1.5px;stroke-linecap:round;stroke-linejoin:bevel;"/>
    </g>
    <g transform="matrix(1.22959,0,0,1.29121,-5905.82,-1585.07)">
        <path d="M5096.94,1418.33C5094.08,1419.02 5090.52,1422.55 5091.21,1419.68" style="fill:none;stroke:black;stroke-opacity:0.7;stroke-width:1.5px;stroke-linecap:round;stroke-linejoin:bevel;"/>
    </g>
    <g transform="matrix(1.22959,0,0,1.29121,-5905.82,-1585.07)">
        <path d="M5026.7,1480.16C5024.41,1479.03 5023.56,1483.74 5021.87,1481.82" style="fill:none;stroke:black;stroke-opacity:0.7;stroke-width:1.5px;stroke-linecap:round;stroke-linejoin:bevel;"/>
    </g>
    <g transform="matrix(1.22959,0,0,1.29121,-6640.88,-1566.16)">
        <path d="M5946.29,1326.45C5944.21,1324.88 5943.34,1326.85 5941.19,1325.38" style="fill:none;stroke:black;stroke-opacity:0.7;stroke-width:1.5px;stroke-linecap:round;stroke-linejoin:bevel;"/>
    </g>
    <g transform="matrix(1.22959,0,0,1.29121,-6640.88,-1566.16)">
        <path d="M5946.29,1326.45C5944.2,1324.87 5947.35,1323.59 5946.27,1321.2" style="fill:none;stroke:black;stroke-opacity:0.7;stroke-width:1.5px;stroke-linecap:round;stroke-linejoin:bevel;"/>
    </g>
    <g transform="matrix(1.22959,0,0,1.29121,-6640.88,-1566.16)">
        <path d="M6041.15,1394.95C6043.28,1396.52 6042.93,1392.73 6045.42,1391.83" style="fill:none;stroke:black;stroke-opacity:0.7;stroke-width:1.5px;stroke-linecap:round;stroke-linejoin:bevel;"/>
    </g>
    <g transform="matrix(1.22959,0,0,1.29121,-5905.82,-1585.07)">
        <path d="M5026.02,1450.66C5027.93,1453.25 5023.72,1452.9 5021.55,1455.26" style="fill:none;stroke:black;stroke-opacity:0.7;stroke-width:1.5px;stroke-linecap:round;stroke-linejoin:bevel;"/>
    </g>
    <g transform="matrix(1.22959,0,0,1.29121,-6640.88,-1566.16)">
        <path d="M6045.33,1398.68C6042.97,1397.17 6043.41,1396.61 6041.15,1394.95" style="fill:none;stroke:black;stroke-opacity:0.7;stroke-width:1.5px;stroke-linecap:round;stroke-linejoin:bevel;"/>
    </g>
    <g transform="matrix(1.22959,0,0,1.29121,-6640.88,-1566.16)">
        <path d="M6184.13,1468.08C6186.68,1468.74 6184.84,1470.64 6186.01,1473" style="fill:none;stroke:black;stroke-opacity:0.7;stroke-width:1.5px;stroke-linecap:round;stroke-linejoin:bevel;"/>
    </g>
    <g transform="matrix(1.22959,0,0,1.29121,-6640.88,-1566.16)">
        <path d="M6188.97,1465.88C6186.49,1466.84 6186.71,1468.75 6184.13,1468.08" style="fill:none;stroke:black;stroke-opacity:0.7;stroke-width:1.5px;stroke-linecap:round;stroke-linejoin:bevel;"/>
    </g>
    <g transform="matrix(1.22959,0,0,1.29121,-6640.88,-1566.16)">
        <path d="M6025.8,1383.87C6028.15,1385.44 6028.17,1385.41 6030.44,1387.08" style="fill:none;stroke:black;stroke-opacity:0.7;stroke-width:1.5px;stroke-linecap:round;stroke-linejoin:bevel;"/>
    </g>
    <g transform="matrix(1.22959,0,0,1.29121,-5905.82,-1585.07)">
        <path d="M4969.36,1503.69C4971.49,1501.85 4969.78,1500.44 4972.01,1498.71" style="fill:none;stroke:black;stroke-opacity:0.7;stroke-width:1.5px;stroke-linecap:round;stroke-linejoin:bevel;"/>
    </g>
    <g transform="matrix(1.22959,0,0,1.29121,-5905.82,-1585.07)">
        <path d="M4966.66,1501.02C4968.78,1499.02 4969.71,1500.5 4972.01,1498.71" style="fill:none;stroke:black;stroke-opacity:0.7;stroke-width:1.5px;stroke-linecap:round;stroke-linejoin:bevel;"/>
    </g>
    <g transform="matrix(1.22959,0,0,1.29121,-6640.88,-1566.16)">
        <path d="M5963.36,1335.08C5961.08,1333.81 5960.24,1336.94 5958.15,1335.37" style="fill:none;stroke:black;stroke-opacity:0.7;stroke-width:1.5px;stroke-linecap:round;stroke-linejoin:bevel;"/>
    </g>
    <g transform="matrix(1.22959,0,0,1.29121,-6640.88,-1566.16)">
        <path d="M5960.04,1340.27C5958.12,1338.48 5960.25,1336.95 5958.15,1335.37" style="fill:none;stroke:black;stroke-opacity:0.7;stroke-width:1.5px;stroke-linecap:round;stroke-linejoin:bevel;"/>
    </g>
    <g transform="matrix(1.22959,0,0,1.29121,-5905.82,-1585.07)">
        <path d="M5031.69,1447.79C5028.82,1449.15 5027.91,1453.22 5026.02,1450.66" style="fill:none;stroke:black;stroke-opacity:0.7;stroke-width:1.5px;stroke-linecap:round;stroke-linejoin:bevel;"/>
    </g>
    <g transform="matrix(1.22959,0,0,1.29121,-5905.82,-1585.07)">
        <path d="M4999.3,1477.2C4996.85,1479.33 4996.91,1479.4 4994.35,1481.39" style="fill:none;stroke:black;stroke-opacity:0.7;stroke-width:1.5px;stroke-linecap:round;stroke-linejoin:bevel;"/>
    </g>
    <g transform="matrix(1.22959,0,0,1.29121,-5905.82,-1585.07)">
        <path d="M4999.3,1477.2C4997.39,1478.87 4997.51,1475.09 4995.08,1474.37" style="fill:none;stroke:black;stroke-opacity:0.7;stroke-width:1.5px;stroke-linecap:round;stroke-linejoin:bevel;"/>
    </g>
    <g transform="matrix(1.22959,0,0,1.29121,-5905.82,-1585.07)">
        <path d="M5021.87,1481.82C5023.63,1483.82 5023.02,1484.33 5024.94,1486.18" style="fill:none;stroke:black;stroke-opacity:0.7;stroke-width:1.5px;stroke-linecap:round;stroke-linejoin:bevel;"/>
    </g>
    <g transform="matrix(1.22959,0,0,1.29121,-5905.82,-1585.07)">
        <path d="M5097.46,1397.08C5096.73,1399.44 5097.56,1394.54 5096.88,1392.16" style="fill:none;stroke:black;stroke-opacity:0.7;stroke-width:1.5px;stroke-linecap:round;stroke-linejoin:bevel;"/>
    </g>
    <g transform="matrix(1.22959,0,0,1.29121,-5905.82,-1585.07)">
        <path d="M5097.46,1397.08C5096.69,1399.57 5096.11,1399.37 5095.49,1401.91" style="fill:none;stroke:black;stroke-opacity:0.7;stroke-width:1.5px;stroke-linecap:round;stroke-linejoin:bevel;"/>
    </g>
</svg>
